<svg xmlns="http://www.w3.org/2000/svg" xmlns:xlink="http://www.w3.org/1999/xlink" viewBox="0 0 162.31 69.71"><defs><style>.cls-1{fill:none;}.cls-2{clip-path:url(#clip-path);}.cls-3{fill:#f28f36;}.cls-4,.cls-7{fill:#007555;}.cls-5{fill:#fff;}.cls-6{fill:#565657;}.cls-7,.cls-8{fill-rule:evenodd;}.cls-8{fill:#8ec553;}</style><clipPath id="clip-path" transform="translate(-23.17 -16.14)"><rect class="cls-1" width="199" height="97"/></clipPath></defs><title>Asset 1@logo-white</title><g id="Layer_2" data-name="Layer 2"><g id="Layer_1-2" data-name="Layer 1"><g class="cls-2"><path class="cls-3" d="M60.49,21a3,3,0,0,0-1.91.7,2,2,0,0,1-1.36.51,6.48,6.48,0,0,1-1.09-.13c-.25,0-.51-.09-.76-.12a.7.7,0,0,0-.64.27.71.71,0,0,0-.1.69c.82,2.08,1.93,2.52,2.73,2.52a3.26,3.26,0,0,0,2.37-1.32,2.29,2.29,0,0,1,1.92-.7c.24,0,.47,0,.72,0a.71.71,0,0,0,.49-1.12A2.93,2.93,0,0,0,60.49,21" transform="translate(-23.17 -16.14)"/><path class="cls-3" d="M74.44,70.66a.71.71,0,0,0-1.23-.32c-.08.1-8.36,10-8.72,12.66a.7.7,0,0,0,.65.8h.05c.5,0,1-.42,2.51-1.72a16,16,0,0,1,1.7-1.38.71.71,0,0,0,.59-.58,13.26,13.26,0,0,1,1.68-3c1.53-2.32,3.11-4.73,2.77-6.48" transform="translate(-23.17 -16.14)"/><path class="cls-3" d="M51.27,47.64c-.13-.69-.23-1.24-.89-1.24h0a16.61,16.61,0,0,1-5-.82,19.37,19.37,0,0,0-5-.88A8.18,8.18,0,0,0,35.82,46h-.45c-2.31,0-3.56-.79-4.17-2.66h0a3.91,3.91,0,0,0-1.84-2.26l-.47-.34a11.09,11.09,0,0,0-2.72-4.65c-.56-.61-.85-1-.83-1.28.06-.84,1.76-2.52,5.08-5.33a.74.74,0,0,0,.32-.15l.09-.08.19-.16A42.67,42.67,0,0,0,34.32,26c2.92-2.92,5.68-5.67,10.18-5.67h.2l.15,0,.08,0h0c.41-.12.83-.27,1.25-.41a10.46,10.46,0,0,1,3-.73c1,0,2,.35,2.71,2.91.09.39.4.58.93.58h.44a.69.69,0,0,0,.54-.22.71.71,0,0,0,.19-.56c-.32-2.9-.87-5.74-3.9-5.74a13.36,13.36,0,0,0-4.19,1c-.6.21-1.17.48-1.73.74l-.56.26a10.9,10.9,0,0,0-2.1-.21c-4.48,0-7.28,3-9.23,5.74a5.9,5.9,0,0,0-1.74,1.19c-2.54,1.82-10,7.17-6.54,12.53-.46,1.7.78,3.25,2.06,4.36a1.86,1.86,0,0,0,0,.48c.22.9,1.1,1.32,1.82,1.65.43.2,1,.45,1,.69l.16,1.39a.73.73,0,0,0,.15.37A6.69,6.69,0,0,0,34.62,49a8.94,8.94,0,0,0,3.44-.77,14.94,14.94,0,0,1,3.21-.36c3.76,0,6.73,1.5,7.39,3.73a.71.71,0,0,0,.65.5h0a.71.71,0,0,0,.66-.44l1.31-3.25a.72.72,0,0,0,0-.42c0-.11,0-.25-.07-.39" transform="translate(-23.17 -16.14)"/><path class="cls-3" d="M62.23,83.49a2.39,2.39,0,0,0-1.42-1.34c-.65-.31-.74-.41-.73-.75A.72.72,0,0,0,60,81l-.89-1.58L59,79.36v0c-1.76-2.07-2.5-4.55-3.28-7.19a38.64,38.64,0,0,0-1.33-4c.08-1.09.17-2.19.25-3.29a4.86,4.86,0,0,0,1.14-3.67,5,5,0,0,0-2.63-3.12.71.71,0,0,0-1,.82c.08.27.18.53.26.78.57,1.68.84,2.6.11,3.5l0,0-.05.08a7,7,0,0,0-.19,7c.82,3.83,1.81,7.51,4.57,10.48,0,0,0,.09,0,.14s0,.27,0,.32a.71.71,0,0,0,.05.46L57.95,84a.83.83,0,0,0,.17.23c1.26,1.1,2.17,1.61,2.88,1.61a1.23,1.23,0,0,0,1-.46,2.34,2.34,0,0,0,.26-1.84l0-.07" transform="translate(-23.17 -16.14)"/><path class="cls-4" d="M84.87,19.93H75.78L48.2,61.61H60.62l6.85-11H80.38l2.22,11H94.76ZM78.62,41.68H73l4.25-6.78Z" transform="translate(-23.17 -16.14)"/><path class="cls-5" d="M95.78,62.36H81.91l-2.22-11H67.95l-6.85,11H46.74L75.32,19.18H85.53Zm-12.5-1.5H93.74L84.21,20.68h-8L49.66,60.87H60.13l6.85-11H81.07ZM79.61,42.43h-8l6.07-9.69Zm-5.18-1.5h3.2l-.77-3.87Z" transform="translate(-23.17 -16.14)"/><path class="cls-4" d="M102.51,43.32l1.41-6.11H99.41l.29-1.26c1.13-4.78,1.91-5.33,2.39-5.33a6.07,6.07,0,0,1,2.72,1l1.57,1,3.74-6.69-1.19-.74a11.41,11.41,0,0,0-5.61-1.24c-3.41,0-6.21,1-8.07,2.74-1.26,1.19-3.12,3.59-4.9,10.75l-3,.42-1.27,5.47H89L83.19,68.58h9L98,43.32Z" transform="translate(-23.17 -16.14)"/><path class="cls-5" d="M93.11,69.58H81.84l5.78-25.26H84.7L86.4,37l3.06-.42c1.8-6.92,3.72-9.33,5-10.56,2.07-2,5.13-3,8.85-3a12.56,12.56,0,0,1,6.24,1.42l2,1.23-4.75,8.52-2.61-1.72a5.72,5.72,0,0,0-1.87-.76c-.21.29-.76,1.29-1.53,4.53v.06h4.51l-1.87,8.11H98.88Zm-8.55-2h6.77L97.1,42.32h4.52l1-4.12H98.06l.57-2.47c1.08-4.58,2-6.13,3.47-6.13a7.21,7.21,0,0,1,3.37,1.16l.52.34,2.72-4.87-.4-.24a10.52,10.52,0,0,0-5-1.07c-3.1,0-5.61.84-7.26,2.42-1.16,1.09-2.9,3.34-4.63,10.28l-.17.66-3,.42-.83,3.59h2.92Z" transform="translate(-23.17 -16.14)"/><path class="cls-4" d="M101.63,37.21,95.9,61.61h9l3.16-13.41c1.45-2.53,2.52-4.18,4-4.18a6.27,6.27,0,0,1,2.17.45l1.58,1.3,4-6.88-1-.78a7.19,7.19,0,0,0-4.64-1.59,8.15,8.15,0,0,0-5.13,1.81l.2-1.11Z" transform="translate(-23.17 -16.14)"/><path class="cls-5" d="M105.59,62.36H94.88L101,36.46h9.34l0,.23a8.78,8.78,0,0,1,4-.93,8,8,0,0,1,5.19,1.78l1.44,1.17L116.09,47l-2.3-1.89a6.21,6.21,0,0,0-1.68-.31c-1,0-2,1.59-3.25,3.69Zm-8.67-1.5h7.34l3.09-13c1.58-2.77,2.77-4.59,4.76-4.59a6.85,6.85,0,0,1,2.64.58l.09.06.79.65L118.84,39l-.48-.39a6.33,6.33,0,0,0-4.09-1.4,7.29,7.29,0,0,0-4.6,1.63l-1.72,1.33.42-2.26H102.3Z" transform="translate(-23.17 -16.14)"/><polygon class="cls-4" points="93.29 21.07 87.56 45.47 96.58 45.47 102.31 21.07 93.29 21.07"/><path class="cls-5" d="M120.41,62.36H109.7l6.09-25.9H126.5Zm-8.67-1.5h7.33L124.46,38h-7.33Z" transform="translate(-23.17 -16.14)"/><path class="cls-4" d="M134,62.17a25.24,25.24,0,0,0,10.62-2.52l.83-.43V50.93l-2.66,1.86a13.44,13.44,0,0,1-7,2.25c-2.88,0-3.49-2.25-3.49-4.14,0-2.74,1.38-7.39,6.56-7.39a11,11,0,0,1,5.69,1.63l1.63,1.3,3.74-7-1.09-.74c-1.93-1.31-5.52-2.16-9.15-2.16-8.4,0-16.9,5.23-16.9,15.23,0,6.34,4.4,10.43,11.2,10.43" transform="translate(-23.17 -16.14)"/><path class="cls-5" d="M138.84,44.26A10.12,10.12,0,0,1,144,45.7l2.44,2,4.51-8.47-1.63-1.11c-2.06-1.4-5.85-2.31-9.64-2.31-8.81,0-17.72,5.49-17.72,16,0,6.79,4.72,11.18,12,11.18a26.26,26.26,0,0,0,11-2.62l1.25-.65V49.4l-4,2.8a12.68,12.68,0,0,1-6.49,2.09c-.66,0-2.66,0-2.66-3.39,0-2.47,1.21-6.64,5.74-6.64m-7.38,6.64c0,3.11,1.57,4.89,4.31,4.89a14.4,14.4,0,0,0,7.5-2.41l1.33-.93v6.33l-.42.22A24.29,24.29,0,0,1,134,61.43c-6.3,0-10.37-3.8-10.37-9.69,0-9.51,8.08-14.48,16.07-14.48,3.46,0,6.86.79,8.65,2l.54.37-3,5.58-.81-.65a11.86,11.86,0,0,0-6.24-1.81c-5.83,0-7.38,5.12-7.38,8.14" transform="translate(-23.17 -16.14)"/><path class="cls-4" d="M153.27,62.17a13.55,13.55,0,0,0,7-1.89l-.12,1.33h7.64l5.73-24.4H166l-.57,1.14a12.6,12.6,0,0,0-6.94-1.84,15.14,15.14,0,0,0-15.3,15.27c0,6.22,4.07,10.39,10.12,10.39m-1.17-10.9c0-3.84,2.51-7.81,6.72-7.81a4.63,4.63,0,0,1,3.79,1.79l-1.86,7.87a10.43,10.43,0,0,1-5.83,2.19c-2.62,0-2.82-3.09-2.82-4" transform="translate(-23.17 -16.14)"/><path class="cls-5" d="M153.27,62.92c-6.55,0-10.95-4.47-10.95-11.14a15.92,15.92,0,0,1,16.13-16A14.19,14.19,0,0,1,165,37.25l.39-.78h9.06l-6.09,25.9h-9.2l.07-.73a14.26,14.26,0,0,1-6,1.29m5.18-25.66A14.36,14.36,0,0,0,144,51.78c0,5.77,3.74,9.64,9.3,9.64a12.68,12.68,0,0,0,6.51-1.78l1.4-.81-.18,2h6.08L172.47,38h-6l-.78,1.55L164.9,39a11.7,11.7,0,0,0-6.44-1.69m-3.54,18.8c-2.69,0-3.64-2.47-3.64-4.79,0-4.21,2.82-8.56,7.54-8.56a5.49,5.49,0,0,1,4.45,2.09l.22.27-2,8.44-.2.16a11.23,11.23,0,0,1-6.38,2.39m3.9-11.86c-3.69,0-5.89,3.59-5.89,7.07,0,.77.15,3.29,2,3.29A9.64,9.64,0,0,0,160,52.72l1.71-7.28a3.73,3.73,0,0,0-2.89-1.23" transform="translate(-23.17 -16.14)"/><polygon class="cls-6" points="73.43 60.9 71.97 60.9 73.75 52.53 75.21 52.53 73.43 60.9"/><path class="cls-6" d="M96.67,77.13H95l0-.11,1.79-8.44h1.64l0,.11ZM95.25,77h1.27l1.74-8.19H97Z" transform="translate(-23.17 -16.14)"/><path class="cls-6" d="M102.42,77l.82-3.86a2.19,2.19,0,0,0,0-.36.59.59,0,0,0-.65-.68,2.28,2.28,0,0,0-1.8,1.16L100,77H98.64l1.24-5.83H101l-.13.86h.05A2.69,2.69,0,0,1,103.11,71c.79,0,1.43.28,1.6,1a2.71,2.71,0,0,1,2.18-1c.91,0,1.64.37,1.64,1.42a2.85,2.85,0,0,1-.08.63l-.85,4h-1.4l.83-3.86a2.06,2.06,0,0,0,0-.36c0-.44-.22-.68-.65-.68a2.24,2.24,0,0,0-1.79,1.16v0L103.82,77Z" transform="translate(-23.17 -16.14)"/><path class="cls-6" d="M107.67,77.13h-1.58l.85-4a2.07,2.07,0,0,0,0-.35c0-.4-.18-.59-.56-.59a2.16,2.16,0,0,0-1.71,1.1v0l-.8,3.76h-1.58l.85-4a1.78,1.78,0,0,0,0-.35c0-.4-.18-.59-.56-.59a2.18,2.18,0,0,0-1.72,1.1l-.81,3.8H98.54l1.28-6h1.27l-.1.71a2.85,2.85,0,0,1,2.13-.9,1.53,1.53,0,0,1,1.64.93,2.83,2.83,0,0,1,2.14-.93c1.11,0,1.73.54,1.73,1.51a3,3,0,0,1-.08.65ZM106.31,77h1.21l.83-3.9a2.85,2.85,0,0,0,.07-.62c0-1.1-.84-1.33-1.55-1.33a2.61,2.61,0,0,0-2.11,1l-.12.16,0-.19a1.36,1.36,0,0,0-1.51-1,2.6,2.6,0,0,0-2.13,1l0,0h-.2l.13-.86H100L98.75,77H100l.79-3.69a2.37,2.37,0,0,1,1.88-1.2.68.68,0,0,1,.74.76,2,2,0,0,1,0,.38l-.8,3.75h1.21l1-4.54V73a2.37,2.37,0,0,1,1.7-.93.67.67,0,0,1,.73.76,2,2,0,0,1,0,.38Z" transform="translate(-23.17 -16.14)"/><path class="cls-6" d="M116,73.37c0,1.91-1.18,3.83-3.4,3.83a1.9,1.9,0,0,1-1.7-.7l-.81,3.84h-1.38l1.94-9.13h1.12l-.06.8h.05a3.52,3.52,0,0,1,2.18-1c1.47,0,2.07,1.08,2.07,2.35m-4.32-.46-.53,2.47a1.44,1.44,0,0,0,1.36.71,2.22,2.22,0,0,0,2.08-2.48c0-.79-.3-1.52-1.1-1.52a2.9,2.9,0,0,0-1.8.82" transform="translate(-23.17 -16.14)"/><path class="cls-6" d="M110.17,80.43h-1.56l2-9.31h1.28l-.06.72a3.59,3.59,0,0,1,2.13-.91c1.35,0,2.16.91,2.16,2.44,0,1.95-1.2,3.92-3.49,3.92a2.14,2.14,0,0,1-1.65-.57Zm-1.35-.18H110l.84-4,.12.19a1.81,1.81,0,0,0,1.63.66c2.17,0,3.31-1.88,3.31-3.74a2,2,0,0,0-2-2.26,3.41,3.41,0,0,0-2.12,1l0,0h-.19l.06-.8h-.95Zm3.68-4.07a1.53,1.53,0,0,1-1.43-.75l0,0,.55-2.53,0,0a3,3,0,0,1,1.87-.85c.74,0,1.19.6,1.19,1.61a2.31,2.31,0,0,1-2.17,2.57m-1.26-.81a1.34,1.34,0,0,0,1.26.64,2.14,2.14,0,0,0,2-2.39c0-.34-.07-1.43-1-1.43a2.82,2.82,0,0,0-1.72.78Z" transform="translate(-23.17 -16.14)"/><path class="cls-6" d="M121.17,72.48a1.58,1.58,0,0,0-.81-.23c-.66,0-1,.7-1.38,1.41L118.25,77h-1.39l1.24-5.83h1.09l-.2,1.22h0c.51-.71,1-1.41,1.85-1.41a1.28,1.28,0,0,1,.88.33Z" transform="translate(-23.17 -16.14)"/><path class="cls-6" d="M118.33,77.13h-1.58l1.28-6h1.27l-.17,1c.47-.64,1-1.23,1.77-1.23a1.36,1.36,0,0,1,.93.35l.05,0-.68,1.29-.09-.08a1.5,1.5,0,0,0-.75-.21c-.6,0-.94.65-1.29,1.34ZM117,77h1.21l.71-3.34c.37-.72.75-1.45,1.46-1.45a1.92,1.92,0,0,1,.78.19l.52-1a1.18,1.18,0,0,0-.76-.26c-.8,0-1.27.66-1.77,1.36l0,0h-.21l.2-1.22h-.91Z" transform="translate(-23.17 -16.14)"/><path class="cls-6" d="M127.94,73.46a3.56,3.56,0,0,1-3.66,3.74,2.22,2.22,0,0,1-2.41-2.41A3.63,3.63,0,0,1,125.56,71a2.22,2.22,0,0,1,2.39,2.44m-1.52.15c0-.81-.33-1.5-1.13-1.5-1.25,0-1.9,1.33-1.9,2.55,0,.79.32,1.48,1.1,1.48,1.25,0,1.93-1.33,1.93-2.53" transform="translate(-23.17 -16.14)"/><path class="cls-6" d="M124.28,77.28a2.32,2.32,0,0,1-2.5-2.5,3.69,3.69,0,0,1,3.78-3.86A2.3,2.3,0,0,1,128,73.46a3.63,3.63,0,0,1-3.75,3.83m1.28-6.17a3.52,3.52,0,0,0-3.6,3.68,2.13,2.13,0,0,0,2.32,2.32,3.47,3.47,0,0,0,3.58-3.65,2.13,2.13,0,0,0-2.3-2.34m-1.06,5.12c-.73,0-1.19-.6-1.19-1.57,0-1.28.69-2.64,2-2.64.76,0,1.22.59,1.22,1.59,0,1.27-.7,2.63-2,2.63m.8-4c-1.18,0-1.81,1.27-1.81,2.46,0,.33.07,1.39,1,1.39,1.19,0,1.84-1.26,1.84-2.44,0-.42-.1-1.41-1-1.41" transform="translate(-23.17 -16.14)"/><polygon class="cls-6" points="108.75 60.9 107.06 60.9 105.97 55.07 107.43 55.07 108.2 59.74 111.03 55.07 112.4 55.07 108.75 60.9"/><path class="cls-6" d="M132,77.13h-1.81l-1.12-6h1.64l.75,4.51,2.73-4.51h1.58ZM130.3,77h1.56l3.54-5.66h-1.16l-2.93,4.84-.8-4.84h-1.27Z" transform="translate(-23.17 -16.14)"/><path class="cls-6" d="M141.25,72.7a2.75,2.75,0,0,1-.53,1.56H137a2.58,2.58,0,0,0,0,.31,1.35,1.35,0,0,0,1.37,1.53,4.33,4.33,0,0,0,2-.62v1a5.48,5.48,0,0,1-2.49.69,2.24,2.24,0,0,1-2.34-2.43A3.73,3.73,0,0,1,139.31,71c1.25,0,1.94.62,1.94,1.68m-4,.57h2.47a1,1,0,0,0,.1-.38.76.76,0,0,0-.84-.77,2,2,0,0,0-1.74,1.15" transform="translate(-23.17 -16.14)"/><path class="cls-6" d="M137.9,77.28a2.32,2.32,0,0,1-2.43-2.52,3.8,3.8,0,0,1,3.84-3.83c1.29,0,2,.64,2,1.76a2.82,2.82,0,0,1-.56,1.62l0,0h-3.67c0,.07,0,.14,0,.22,0,.91.48,1.44,1.28,1.44a4.25,4.25,0,0,0,2-.61l.14-.08v1.25l0,0a5.59,5.59,0,0,1-2.53.69m1.41-6.17a3.62,3.62,0,0,0-3.67,3.65,2.14,2.14,0,0,0,2.26,2.34,5.46,5.46,0,0,0,2.4-.65v-.83a4.41,4.41,0,0,1-1.94.55,1.43,1.43,0,0,1-1.46-1.62,2.8,2.8,0,0,1,0-.32v-.08h3.75a2.72,2.72,0,0,0,.49-1.47c0-1-.66-1.58-1.85-1.58m.51,2.24h-2.68l.07-.13A2.05,2.05,0,0,1,139,72a.86.86,0,0,1,.93.86,1,1,0,0,1-.1.41Zm-2.38-.18h2.26a.73.73,0,0,0,.07-.29.67.67,0,0,0-.75-.68,1.86,1.86,0,0,0-1.59,1" transform="translate(-23.17 -16.14)"/><path class="cls-6" d="M142.13,74.78A3.56,3.56,0,0,1,145.5,71a1.9,1.9,0,0,1,1.7.77l.87-4.14h1.38l-2,9.39h-1.12l.06-.8h-.05a3.12,3.12,0,0,1-2.14,1,2.14,2.14,0,0,1-2.09-2.42m4.31.57.52-2.44a1.54,1.54,0,0,0-1.37-.81,2.32,2.32,0,0,0-2.07,2.54c0,.79.33,1.51,1.1,1.51a2.83,2.83,0,0,0,1.82-.8" transform="translate(-23.17 -16.14)"/><path class="cls-6" d="M144.22,77.28A2.21,2.21,0,0,1,142,74.77a3.64,3.64,0,0,1,3.46-3.84,2.1,2.1,0,0,1,1.65.65l.85-4h1.57l0,.11-2,9.45h-1.28l.06-.73a3.14,3.14,0,0,1-2.09.88m1.28-6.17a3.46,3.46,0,0,0-3.28,3.66c0,1.42.79,2.33,2,2.33a3,3,0,0,0,2.08-.93l0,0h.18l-.06.8h.95l2-9.2h-1.2L147.24,72l-.11-.19a1.82,1.82,0,0,0-1.63-.73m-.87,5.12c-.73,0-1.19-.63-1.19-1.6A2.41,2.41,0,0,1,145.59,72a1.63,1.63,0,0,1,1.45.85l0,0-.53,2.49,0,0a2.91,2.91,0,0,1-1.88.83m1-4a2.24,2.24,0,0,0-2,2.45c0,.69.27,1.42,1,1.42a2.74,2.74,0,0,0,1.73-.75l.51-2.38a1.46,1.46,0,0,0-1.28-.74" transform="translate(-23.17 -16.14)"/><polygon class="cls-6" points="134.33 57.1 131.92 57.1 131.12 60.9 129.67 60.9 131.44 52.53 136.22 52.53 135.95 53.8 132.62 53.8 132.19 55.83 134.6 55.83 134.33 57.1"/><path class="cls-6" d="M154.37,77.13h-1.64l0-.11,1.79-8.44h5L159.2,70h-3.34l-.39,1.85h2.41l-.31,1.45h-2.41ZM152.94,77h1.28l.79-3.81h2.41l.23-1.09h-2.41l.47-2.21h3.33l.23-1.09h-4.6Z" transform="translate(-23.17 -16.14)"/><path class="cls-6" d="M164.88,73.46a3.56,3.56,0,0,1-3.67,3.74,2.22,2.22,0,0,1-2.41-2.41A3.62,3.62,0,0,1,162.5,71a2.22,2.22,0,0,1,2.39,2.44m-1.52.15c0-.81-.33-1.5-1.13-1.5-1.25,0-1.9,1.33-1.9,2.55,0,.79.32,1.48,1.1,1.48,1.25,0,1.93-1.33,1.93-2.53" transform="translate(-23.17 -16.14)"/><path class="cls-6" d="M161.22,77.28a2.32,2.32,0,0,1-2.5-2.5,3.7,3.7,0,0,1,3.78-3.86A2.3,2.3,0,0,1,165,73.46a3.63,3.63,0,0,1-3.75,3.83m1.28-6.17a3.52,3.52,0,0,0-3.6,3.68,2.13,2.13,0,0,0,2.32,2.32,3.47,3.47,0,0,0,3.58-3.65,2.13,2.13,0,0,0-2.3-2.34m-1.06,5.12c-.74,0-1.19-.6-1.19-1.57,0-1.28.7-2.64,2-2.64.77,0,1.22.59,1.22,1.59,0,1.27-.71,2.63-2,2.63m.8-4c-1.18,0-1.81,1.27-1.81,2.46,0,.33.07,1.39,1,1.39,1.19,0,1.84-1.26,1.84-2.44,0-.42-.1-1.41-1-1.41" transform="translate(-23.17 -16.14)"/><path class="cls-6" d="M172,73.46a3.56,3.56,0,0,1-3.66,3.74A2.22,2.22,0,0,1,166,74.79,3.63,3.63,0,0,1,169.64,71,2.22,2.22,0,0,1,172,73.46m-1.52.15c0-.81-.33-1.5-1.13-1.5-1.26,0-1.9,1.33-1.9,2.55,0,.79.32,1.48,1.1,1.48,1.26,0,1.93-1.33,1.93-2.53" transform="translate(-23.17 -16.14)"/><path class="cls-6" d="M168.36,77.28a2.32,2.32,0,0,1-2.5-2.5,3.7,3.7,0,0,1,3.78-3.86,2.3,2.3,0,0,1,2.47,2.52,3.63,3.63,0,0,1-3.75,3.83m1.28-6.17a3.52,3.52,0,0,0-3.6,3.68,2.13,2.13,0,0,0,2.32,2.32,3.47,3.47,0,0,0,3.58-3.65,2.13,2.13,0,0,0-2.29-2.34m-1.07,5.12c-.74,0-1.19-.6-1.19-1.57,0-1.28.7-2.64,2-2.64.76,0,1.22.59,1.22,1.59,0,1.27-.71,2.63-2,2.63m.8-4c-1.18,0-1.82,1.27-1.82,2.46,0,.33.07,1.39,1,1.39,1.19,0,1.84-1.26,1.84-2.44,0-.42-.1-1.41-1-1.41" transform="translate(-23.17 -16.14)"/><path class="cls-6" d="M173.1,74.78A3.56,3.56,0,0,1,176.48,71a1.89,1.89,0,0,1,1.7.77l.88-4.14h1.38l-2,9.39h-1.12l.07-.8h-.05a3.12,3.12,0,0,1-2.14,1,2.14,2.14,0,0,1-2.09-2.42m4.32.57.52-2.44a1.53,1.53,0,0,0-1.37-.81,2.32,2.32,0,0,0-2.07,2.54c0,.79.33,1.51,1.1,1.51a2.83,2.83,0,0,0,1.82-.8" transform="translate(-23.17 -16.14)"/><path class="cls-6" d="M175.2,77.28A2.21,2.21,0,0,1,173,74.77a3.64,3.64,0,0,1,3.46-3.84,2.08,2.08,0,0,1,1.65.65l.85-4h1.56l0,.11-2,9.45h-1.28l.06-.73a3.12,3.12,0,0,1-2.09.88m1.28-6.17a3.46,3.46,0,0,0-3.28,3.66c0,1.42.79,2.33,2,2.33a3,3,0,0,0,2.09-.93l0,0h.18l-.07.8h.95l2-9.2h-1.2L178.22,72l-.12-.19a1.81,1.81,0,0,0-1.62-.73m-.87,5.12c-.72,0-1.19-.63-1.19-1.6A2.41,2.41,0,0,1,176.57,72a1.63,1.63,0,0,1,1.45.85l0,0-.53,2.49,0,0a2.9,2.9,0,0,1-1.88.83m1-4a2.24,2.24,0,0,0-2,2.45c0,.69.26,1.42,1,1.42a2.74,2.74,0,0,0,1.73-.75l.51-2.38a1.45,1.45,0,0,0-1.28-.74" transform="translate(-23.17 -16.14)"/><path class="cls-6" d="M182.14,72.77c0,.2.13.39.59.51l.85.2A1.5,1.5,0,0,1,184.91,75c0,1.24-1.17,2.23-2.79,2.23a3.33,3.33,0,0,1-2-.64l.58-1.2a2.37,2.37,0,0,0,1.79.83c.75,0,1.18-.37,1.18-.91,0-.22-.13-.38-.53-.48L182,74.48a1.32,1.32,0,0,1-1.09-1.34c0-1.32,1.1-2.12,2.56-2.12a3.47,3.47,0,0,1,1.91.52l-.61,1.14a2.38,2.38,0,0,0-1.6-.62c-.63,0-1,.27-1,.71" transform="translate(-23.17 -16.14)"/><path class="cls-6" d="M182.13,77.28a3.43,3.43,0,0,1-2.07-.65l-.06,0,.68-1.39.09.11a2.28,2.28,0,0,0,1.72.8c.68,0,1.09-.32,1.09-.82,0-.14-.05-.3-.46-.4l-1.15-.3a1.41,1.41,0,0,1-1.15-1.43c0-1.32,1.07-2.21,2.65-2.21a3.57,3.57,0,0,1,2,.54l.06,0-.7,1.31-.09-.09a2.3,2.3,0,0,0-1.54-.6c-.59,0-.94.23-.94.63,0,.12.06.3.53.42l.85.2A1.58,1.58,0,0,1,185,75c0,1.32-1.23,2.32-2.87,2.32m-1.91-.75a3.31,3.31,0,0,0,1.91.57c1.54,0,2.7-.92,2.7-2.15a1.4,1.4,0,0,0-1.26-1.4l-.85-.2c-.45-.11-.66-.3-.66-.59,0-.49.43-.8,1.11-.8a2.52,2.52,0,0,1,1.58.57l.52-1a3.51,3.51,0,0,0-1.8-.46c-1.48,0-2.47.81-2.47,2a1.24,1.24,0,0,0,1,1.26l1.14.31c.41.1.6.28.6.57,0,.61-.5,1-1.27,1a2.48,2.48,0,0,1-1.77-.75Z" transform="translate(-23.17 -16.14)"/><polygon class="cls-3" points="65.93 60.9 59.16 60.9 60.52 54.93 67.29 54.93 65.93 60.9"/><path class="cls-3" d="M120.42,39.9c3.12,0,6.75-2.73,6.75-6.26a5.23,5.23,0,0,0-5-5.26,6.92,6.92,0,0,0-6.64,6.48,4.88,4.88,0,0,0,4.93,5" transform="translate(-23.17 -16.14)"/><path class="cls-5" d="M120.42,40.38a5.34,5.34,0,0,1-5.4-5.51,7.41,7.41,0,0,1,7.11-6.95,5.7,5.7,0,0,1,5.51,5.73c0,3.79-3.89,6.73-7.23,6.73m1.71-11.52a6.42,6.42,0,0,0-6.17,6,4.42,4.42,0,0,0,4.46,4.57c2.91,0,6.28-2.53,6.28-5.79a4.75,4.75,0,0,0-4.57-4.79" transform="translate(-23.17 -16.14)"/><path class="cls-5" d="M118.38,36.76a5.54,5.54,0,0,0,.81.36,4.46,4.46,0,0,0,.84.21,4.19,4.19,0,0,0,1,0l.48-.08c.15-.06.31-.08.46-.13l.43-.16.38-.18c.25-.1.43-.23.58-.29l.23-.11a2.16,2.16,0,0,1-.15.21,3.11,3.11,0,0,1-.46.5c-.11.09-.22.19-.35.29l-.45.26a4.51,4.51,0,0,1-.52.21L121,38a3.48,3.48,0,0,1-.59,0,2.42,2.42,0,0,1-.56-.11,2.75,2.75,0,0,1-.49-.19,2.47,2.47,0,0,1-.39-.24,2.15,2.15,0,0,1-.64-.68" transform="translate(-23.17 -16.14)"/><path class="cls-7" d="M139.89,35.09A9.76,9.76,0,0,1,148,26.76c2.79-.54,3.34.1,2.22,2.54a10.53,10.53,0,0,1-10.28,5.79" transform="translate(-23.17 -16.14)"/><path class="cls-8" d="M138.4,35.25a5.12,5.12,0,0,1-2.75-5.46c.21-1.49.64-1.66,1.65-.66a5.54,5.54,0,0,1,1.1,6.12" transform="translate(-23.17 -16.14)"/></g></g></g></svg>