<?xml version='1.0' encoding='iso-8859-1'?>
<!DOCTYPE svg PUBLIC '-//W3C//DTD SVG 1.1//EN' 'http://www.w3.org/Graphics/SVG/1.1/DTD/svg11.dtd'>
<svg version="1.1" xmlns="http://www.w3.org/2000/svg" viewBox="0 0 311.954 311.954" xmlns:xlink="http://www.w3.org/1999/xlink" enable-background="new 0 0 311.954 311.954">
  <g>
    <g>
      <path d="m143.621,280.135v17.766c0,7.761 6.292,14.053 14.053,14.053 7.761,0 14.053-6.292 14.053-14.053v-14.672h-17.667c-3.848,0-7.427-1.145-10.439-3.094z"/>
    </g>
    <g>
      <path d="m140.585,65.604c10.484,0 19.414-6.647 22.809-15.956h-45.618c3.394,9.309 12.325,15.956 22.809,15.956z"/>
    </g>
    <g>
      <g>
        <path d="m222.976,203.851h-10.57c0-4.238 0.193-7.057-1.166-11.243-1.868-5.751-5.862-10.549-11.051-13.469l-.393-78.225c-0.076-15.205-12.508-27.911-27.714-27.911h-2.087l-21.597,42.467v-29.522l4.93-8.611c1.105-1.929-0.288-4.332-2.512-4.332h-20.471c-2.19,0-3.587,2.338-2.548,4.266l4.673,8.677v29.524l-21.274-42.467h-2.11c-15.206,0-27.638,12.706-27.714,27.911l-.433,86.037c-0.032,6.468 5.184,11.737 11.653,11.77 0.02,0 0.039,0 0.06,0 6.44,0 11.677-5.204 11.71-11.653l.433-86.037c0.007-1.361 1.182-2.442 2.57-2.299 1.206,0.124 2.077,1.23 2.077,2.443l.005,196.725c0,7.987 6.663,14.417 14.733,14.037 7.559-0.356 13.374-6.867 13.374-14.434v-23.643c-1.749-2.901-2.775-6.286-2.775-9.913v-52.059c0-3.628 1.026-7.012 2.775-9.913v-13.2c0-1.643 1.23-3.115 2.871-3.201 1.75-0.092 3.197,1.3 3.197,3.03v7.098c3.012-1.949 6.591-3.094 10.439-3.094h11.736c-1.361,4.19-1.166,7.026-1.166,11.243h-10.57c-4.44,0-8.038,3.599-8.038,8.038v52.058c0,4.44 3.599,8.039 8.039,8.039h68.916c4.44,0 8.039-3.599 8.039-8.039v-52.059c-0.003-4.44-3.601-8.039-8.041-8.039zm-51.462-20.638c-0.015-0.09-0.024-0.182-0.041-0.271v-81.897c0-1.351 1.093-2.447 2.444-2.451 1.351-0.004 2.45,1.087 2.457,2.438l.392,78.153c-1.933,1.098-3.701,2.455-5.252,4.028zm24.965,20.17h-15.923c0-3.513-0.199-4.947 0.889-7.052 1.967,1.495 4.412,2.391 7.071,2.391 0.019,0 0.04,0 0.059,0 2.639-0.013 5.062-0.909 7.013-2.393 1.092,2.109 0.891,3.548 0.891,7.054z"/>
      </g>
    </g>
    <g>
      <path d="m116.313,38.873h47.854c4.398,0 7.964-3.565 7.964-7.964 0-2.773-1.42-5.213-3.57-6.639-0.536-4.432-2.097-8.546-4.445-12.099-4.118-6.232-10.644-10.729-18.254-12.171v13.594c0,3.104-2.517,5.621-5.621,5.621-3.104,0-5.621-2.517-5.621-5.621v-13.456c-7.315,1.577-13.572,5.99-17.566,12.034-2.271,3.436-3.806,7.398-4.39,11.665-2.56,1.324-4.314,3.991-4.314,7.073-0.001,4.398 3.565,7.963 7.963,7.963z"/>
    </g>
  </g>
</svg>
